<?xml version="1.0" standalone="no"?>
<!DOCTYPE svg PUBLIC "-//W3C//DTD SVG 20010904//EN"
 "http://www.w3.org/TR/2001/REC-SVG-20010904/DTD/svg10.dtd">
<svg version="1.0" xmlns="http://www.w3.org/2000/svg"
 width="901.000000pt" height="1280.000000pt" viewBox="0 0 901.000000 1280.000000"
 preserveAspectRatio="xMidYMid meet">

<g transform="translate(0.000000,1280.000000) scale(0.100000,-0.100000)"
fill="#000000" stroke="none">
<path d="M5600 12780 l-1785 -5 0 -1525 0 -1525 496 -3 497 -2 6 -23 c3 -12 6
-1417 6 -3123 l0 -3101 -42 -49 c-42 -48 -128 -131 -199 -193 l-37 -31 -390 0
-390 0 -79 78 c-43 43 -105 102 -138 132 l-60 53 -5 956 -5 956 -1735 0 -1735
0 -2 -1620 -3 -1620 108 -110 c111 -114 612 -632 737 -765 40 -41 209 -219
376 -394 167 -176 369 -389 449 -475 79 -86 187 -199 240 -252 l95 -97 115 -4
c63 -3 1028 -4 2143 -4 l2028 1 87 90 c48 50 125 131 172 180 47 50 274 288
505 529 231 241 474 496 539 565 66 69 237 248 382 396 144 149 278 290 298
313 l36 44 0 3779 c0 3015 3 3780 13 3784 6 2 157 5 334 7 177 2 325 6 328 10
4 4 7 688 6 1520 -1 1175 -4 1514 -14 1520 -7 4 -327 8 -712 9 -385 1 -740 3
-790 3 -49 1 -893 -1 -1875 -4z m3054 -487 c7 -126 -2 -2166 -9 -2190 -3 -10
-81 -13 -345 -13 l-340 0 0 -3883 0 -3884 -28 -39 c-16 -21 -85 -98 -153 -169
-68 -72 -205 -216 -303 -320 -99 -105 -225 -237 -280 -295 -56 -58 -173 -181
-261 -275 -212 -225 -542 -573 -678 -712 l-109 -113 -1856 -2 c-1022 -1 -1915
-2 -1986 -3 -71 -2 -137 0 -147 2 -17 5 -369 367 -789 813 -96 102 -220 232
-276 290 -55 58 -175 184 -265 280 -90 96 -233 249 -319 339 l-155 164 0 1361
0 1361 1385 0 1385 0 5 -835 c5 -805 6 -837 24 -865 30 -46 417 -435 451 -453
32 -17 67 -18 825 -13 l255 1 243 241 242 242 0 1641 c1 4342 -1 5110 -13
5118 -7 4 -231 8 -499 8 l-488 0 -5 23 c-3 12 -4 532 -3 1155 3 994 5 1134 18
1142 9 6 856 10 2241 10 l2226 0 7 -127z"/>
<path d="M4590 11256 c0 -553 3 -707 13 -713 6 -4 231 -9 498 -11 l486 -3 6
-107 c4 -59 7 -1722 7 -3695 l0 -3588 -67 -72 c-37 -40 -203 -210 -369 -379
l-303 -308 -714 0 -715 0 -366 371 -366 371 -2 716 -3 717 -957 3 -957 2 -7
-47 c-4 -27 -5 -490 -2 -1029 5 -763 9 -987 19 -1005 14 -27 201 -227 475
-508 162 -167 524 -548 907 -954 99 -105 147 -149 175 -159 30 -10 370 -13
1807 -13 974 0 1782 3 1796 7 15 5 143 132 325 325 164 175 313 332 329 349
162 167 891 937 897 947 4 8 8 1809 8 4003 1 2194 4 4003 6 4020 l6 31 345 6
c190 4 349 9 352 13 3 3 6 321 6 707 l0 702 -1817 3 -1818 2 0 -704z"/>
</g>
</svg>
