<?xml version="1.0" standalone="no"?>
<!DOCTYPE svg PUBLIC "-//W3C//DTD SVG 20010904//EN"
 "http://www.w3.org/TR/2001/REC-SVG-20010904/DTD/svg10.dtd">
<svg version="1.0" xmlns="http://www.w3.org/2000/svg"
 width="901.000000pt" height="1280.000000pt" viewBox="0 0 901.000000 1280.000000"
 preserveAspectRatio="xMidYMid meet">

<g transform="translate(0.000000,1280.000000) scale(0.100000,-0.100000)"
fill="#000000" stroke="none">
<path d="M4645 12780 l-830 -5 -3 -1519 c-2 -1209 0 -1521 10 -1528 7 -4 232
-8 499 -8 l487 0 6 -31 c3 -17 6 -1421 6 -3119 l0 -3087 -34 -45 c-19 -25 -81
-88 -138 -141 l-103 -97 -391 0 -390 0 -90 88 c-49 48 -111 108 -139 132 l-50
45 -2 943 c-1 519 -4 950 -7 958 -5 12 -254 14 -1738 12 l-1733 -3 -3 -1618
-2 -1619 377 -392 c438 -454 1118 -1167 1313 -1375 74 -80 176 -188 226 -240
l92 -96 2141 0 2142 0 82 85 c45 47 123 128 172 180 50 52 279 292 510 534
231 241 488 509 570 596 83 86 270 282 417 434 l268 277 2 3787 3 3787 332 5
c182 3 335 9 340 13 10 11 4 3029 -7 3041 -9 9 -3046 14 -4335 6z m4007 -467
c6 -125 -1 -2192 -7 -2210 -3 -10 -85 -13 -345 -15 l-340 -3 0 -3881 0 -3881
-29 -39 c-16 -21 -177 -195 -358 -385 -180 -191 -440 -465 -577 -610 -333
-352 -606 -639 -738 -776 l-108 -112 -1992 -3 c-1096 -2 -1998 -1 -2005 0 -18
5 -775 797 -1565 1639 -125 133 -230 252 -233 265 -3 13 -4 626 -3 1363 l3
1340 1385 0 1385 0 5 -835 c4 -688 7 -839 19 -860 21 -37 421 -439 456 -457
25 -14 97 -16 553 -14 288 0 529 4 535 9 7 4 117 113 244 243 l233 236 0 3376
c0 3061 -2 3375 -16 3381 -9 3 -233 6 -499 6 -431 0 -484 2 -489 16 -3 9 -6
526 -6 1149 0 1017 2 1135 16 1149 14 14 231 16 2243 16 l2228 0 5 -107z"/>
<path d="M4597 11953 c-4 -3 -7 -320 -7 -704 0 -547 3 -700 13 -706 6 -4 231
-9 498 -11 l486 -3 6 -105 c4 -58 7 -1717 7 -3687 l0 -3582 -366 -372 -366
-373 -696 0 -697 0 -347 348 -348 347 -2 745 -3 745 -986 3 c-909 2 -988 1
-1000 -15 -12 -13 -14 -183 -12 -1037 2 -562 6 -1061 10 -1111 l8 -90 727
-719 728 -719 0 -42 0 -42 46 -7 c60 -8 3677 -8 3698 0 9 3 16 17 16 31 0 32
103 139 862 899 334 334 610 616 614 626 3 10 12 18 20 18 12 0 14 544 14
4070 l0 4070 278 0 c311 0 414 4 431 14 15 10 16 1368 1 1397 -11 19 -41 19
-1819 19 -994 0 -1811 -3 -1814 -7z m3571 -710 l2 -623 -329 0 c-181 0 -342
-3 -359 -6 l-31 -6 -3 -4087 -3 -4086 -29 -48 c-15 -26 -38 -53 -50 -60 -23
-13 -1354 -1349 -1377 -1382 -8 -12 -28 -30 -44 -42 l-30 -21 -1685 -1 c-1198
-1 -1714 2 -1785 10 l-100 12 -390 386 c-214 212 -548 543 -742 735 l-352 348
-1 1074 -1 1074 926 0 925 0 0 -637 c0 -351 5 -681 10 -733 l10 -95 356 -350
357 -350 131 -2 c600 -10 1009 -12 1160 -5 l180 8 378 384 377 385 1 3741 0
3741 -67 6 c-38 4 -255 7 -484 7 -371 0 -418 2 -423 16 -3 9 -6 285 -6 614 0
560 1 600 18 609 11 7 581 10 1737 8 l1720 -2 3 -622z"/>
</g>
</svg>
