<?xml version="1.0" standalone="no"?>
<!DOCTYPE svg PUBLIC "-//W3C//DTD SVG 20010904//EN"
 "http://www.w3.org/TR/2001/REC-SVG-20010904/DTD/svg10.dtd">
<svg version="1.0" xmlns="http://www.w3.org/2000/svg"
 width="1280.000000pt" height="1280.000000pt" viewBox="0 0 1280.000000 1280.000000"
 preserveAspectRatio="xMidYMid meet">
<metadata>
Created by potrace 1.14, written by Peter Selinger 2001-2017
</metadata>
<g transform="translate(0.000000,1280.000000) scale(0.100000,-0.100000)"
fill="#000000" stroke="none">
<path d="M5721 12780 c-4 -3 -7 -56 -7 -117 1 -67 -3 -115 -9 -117 -6 -3 -6
-5 0 -5 6 -1 10 -16 8 -33 -9 -93 -7 -1428 2 -1428 7 0 7 -3 0 -8 -6 -4 -10
-75 -10 -177 0 -102 4 -173 10 -177 7 -5 7 -8 0 -8 -6 0 -10 -45 -10 -115 0
-70 4 -115 10 -115 6 0 6 -3 0 -8 -13 -9 -13 -225 0 -234 7 -5 7 -8 0 -8 -6 0
-10 -40 -10 -100 0 -55 4 -100 8 -100 5 0 5 -5 1 -12 -9 -14 -8 -273 0 -286 3
-6 26 -9 51 -8 25 1 45 -2 45 -7 0 -4 5 -5 11 -1 16 10 169 11 169 1 0 -5 5
-5 11 -1 16 10 89 12 89 2 0 -4 7 -5 15 -2 25 10 115 10 115 1 0 -5 6 -5 13 1
7 6 18 7 26 3 8 -5 26 -5 41 -1 15 4 33 4 40 0 7 -4 25 -4 40 0 15 4 33 4 40
0 7 -4 25 -4 40 0 18 5 32 4 39 -3 6 -6 11 -7 11 -1 0 5 25 9 55 9 30 0 55 -3
55 -7 0 -4 12 -4 27 -2 15 3 36 3 48 0 19 -5 20 -13 20 -121 0 -63 4 -115 9
-115 5 0 4 -6 -1 -12 -5 -7 -8 -24 -6 -38 2 -14 3 -31 3 -37 0 -7 0 -20 0 -28
0 -8 0 -22 0 -30 0 -8 0 -22 0 -30 0 -8 0 -21 0 -27 0 -7 -1 -24 -3 -38 -2
-14 1 -31 6 -37 6 -8 6 -13 0 -13 -6 0 -8 -12 -6 -27 2 -16 4 -34 3 -40 0 -13
0 -60 0 -85 0 -7 0 -60 0 -118 0 -58 0 -112 0 -120 0 -8 -1 -37 -2 -63 -2 -27
0 -51 5 -54 4 -2 4 -10 0 -16 -10 -17 -10 -77 0 -77 5 0 5 -6 -1 -13 -7 -8 -7
-18 -2 -27 5 -8 6 -18 3 -23 -10 -16 -10 -87 0 -87 6 0 6 -5 1 -12 -5 -7 -8
-67 -7 -133 2 -66 3 -127 3 -135 0 -8 -1 -37 -2 -63 -2 -27 0 -51 5 -54 4 -2
4 -10 0 -16 -10 -17 -10 -107 1 -107 4 0 4 -6 -1 -12 -5 -7 -8 -24 -6 -38 2
-14 3 -31 3 -37 0 -7 0 -20 0 -28 0 -8 0 -21 0 -27 0 -126 0 -246 0 -258 0 -8
-1 -26 -3 -40 -2 -14 1 -33 5 -42 5 -11 5 -18 -1 -18 -7 0 -7 -8 -2 -23 5 -13
5 -30 1 -37 -5 -8 -5 -21 0 -30 5 -9 6 -21 2 -27 -9 -15 -8 -135 2 -151 4 -7
4 -12 -1 -12 -7 0 -10 -247 -3 -275 1 -5 1 -12 0 -15 -7 -16 -5 -97 3 -107 6
-8 6 -13 0 -13 -10 0 -10 -80 1 -98 4 -7 3 -12 -1 -12 -5 0 -7 -21 -6 -47 2
-27 4 -52 4 -58 1 -5 -1 -25 -4 -42 -2 -18 0 -33 5 -33 5 0 7 -4 4 -9 -7 -10
-8 -72 -3 -111 2 -14 -1 -31 -6 -37 -5 -8 -6 -13 0 -13 10 0 11 -200 1 -216
-4 -6 -4 -14 0 -18 10 -11 9 -206 -2 -206 -4 0 -4 -6 1 -12 5 -7 8 -26 7 -43
-1 -16 -4 -49 -6 -72 -2 -24 0 -43 5 -43 4 0 5 -5 1 -11 -10 -18 -11 -352 -1
-366 6 -8 6 -13 0 -13 -10 0 -10 -60 1 -78 4 -7 3 -12 -2 -12 -10 0 -9 -30 2
-48 4 -6 3 -12 -1 -12 -10 0 -10 -61 1 -78 4 -7 4 -12 -1 -12 -4 0 -8 -16 -8
-35 0 -19 4 -35 8 -35 5 0 5 -6 1 -12 -11 -18 -12 -48 -2 -48 5 0 4 -8 -1 -18
-5 -10 -6 -24 -1 -32 4 -7 6 -20 3 -27 -9 -23 -9 -463 0 -463 5 0 5 -5 1 -12
-11 -17 -11 -108 0 -108 5 0 5 -5 0 -12 -11 -16 -11 -68 -1 -85 5 -7 4 -13 0
-13 -5 0 -8 -19 -6 -42 2 -24 3 -49 3 -55 0 -17 0 -100 0 -115 0 -7 -1 -38 -2
-68 -1 -30 1 -61 6 -68 4 -6 3 -12 -2 -12 -10 0 -9 -30 2 -48 4 -6 3 -12 -2
-12 -10 0 -9 -30 2 -48 4 -6 3 -12 -2 -12 -10 0 -9 -30 2 -48 4 -6 3 -12 -1
-12 -10 0 -10 -41 1 -58 4 -7 3 -12 -2 -12 -5 0 -8 -11 -7 -24 2 -13 -7 -34
-19 -47 -12 -13 -31 -37 -44 -53 -12 -16 -22 -25 -22 -20 0 4 -11 -8 -25 -27
-14 -19 -28 -33 -30 -32 -3 2 -20 -13 -40 -32 -19 -19 -39 -35 -44 -35 -5 0
-13 -9 -16 -20 -4 -11 -11 -18 -16 -15 -5 4 -9 1 -9 -5 0 -7 -6 -10 -12 -7 -7
2 -25 0 -40 -4 -16 -4 -28 -4 -28 1 0 6 -9 6 -22 1 -13 -5 -33 -5 -45 0 -13 5
-25 4 -28 -2 -4 -5 -12 -6 -18 -2 -17 10 -47 11 -47 2 0 -5 -11 -4 -24 1 -15
5 -27 5 -34 -2 -6 -6 -12 -6 -16 1 -4 6 -15 7 -29 2 -12 -5 -31 -5 -42 -1 -11
4 -28 3 -37 -2 -10 -5 -18 -5 -18 -1 0 4 -11 8 -25 8 -14 0 -25 -4 -25 -8 0
-5 -5 -5 -10 -2 -14 9 -224 10 -237 2 -7 -4 -14 -3 -18 2 -3 6 -11 8 -18 6
-11 -5 -87 57 -87 70 0 8 -27 35 -35 35 -3 0 -34 27 -67 60 -33 34 -70 67 -80
74 -14 10 -21 28 -23 63 -2 26 -4 50 -5 53 -1 3 -1 10 0 15 7 28 5 75 -2 75
-5 0 -6 6 -1 13 13 21 13 47 0 47 -8 0 -7 4 3 10 12 8 12 10 1 10 -10 0 -11 3
-2 13 8 10 7 17 -2 27 -6 7 -7 10 -1 7 12 -7 11 94 -2 114 -4 7 -3 10 2 6 13
-7 12 126 -1 135 -7 5 -7 8 0 8 11 0 11 62 0 79 -3 6 -2 11 2 11 12 0 10 134
-2 142 -7 5 -7 8 0 8 11 0 11 62 0 79 -3 6 -2 11 4 11 13 0 9 53 -4 62 -7 5
-7 8 0 8 12 0 13 179 2 197 -4 6 -3 14 2 17 10 7 9 45 -2 63 -3 5 -3 13 1 17
11 12 9 156 -3 156 -6 0 -7 3 0 8 13 9 15 132 3 132 -5 0 -6 6 -2 12 13 20 12
317 0 327 -19 14 -61 21 -76 11 -9 -5 -19 -5 -28 2 -10 9 -15 9 -21 0 -4 -7
-12 -8 -21 -2 -9 5 -19 5 -27 -2 -8 -6 -13 -6 -13 -1 0 5 -7 10 -15 10 -8 0
-15 -5 -15 -11 0 -7 -3 -7 -8 -1 -8 12 -142 14 -142 2 0 -4 -8 -3 -18 2 -13 7
-23 6 -30 -1 -8 -8 -12 -8 -12 -2 0 6 -7 11 -15 11 -8 0 -15 -5 -15 -11 0 -7
-3 -7 -8 -1 -8 12 -142 14 -142 2 0 -4 -8 -3 -18 2 -13 7 -23 6 -30 -1 -8 -8
-12 -8 -12 -2 0 6 -7 11 -15 11 -8 0 -15 -5 -15 -11 0 -7 -3 -7 -8 -1 -8 12
-142 14 -142 2 0 -4 -5 -5 -11 -1 -18 11 -109 12 -102 1 4 -6 1 -7 -7 -2 -18
11 -160 12 -153 1 4 -5 1 -6 -7 -1 -17 11 -80 14 -74 3 3 -4 -7 -3 -23 3 -31
12 -33 12 -50 -3 -7 -6 -13 -6 -13 -1 0 12 -83 11 -92 -2 -5 -7 -8 -7 -8 0 0
6 -27 10 -60 10 -33 0 -60 -4 -60 -8 0 -4 -8 -4 -17 2 -10 5 -26 5 -40 0 -15
-5 -23 -5 -23 2 0 6 -7 6 -20 -1 -11 -6 -20 -7 -20 -3 0 4 -27 8 -60 8 -33 0
-60 -4 -60 -8 0 -4 -8 -4 -17 2 -10 5 -26 5 -40 0 -13 -5 -23 -5 -23 -1 0 9
-122 8 -138 -2 -7 -4 -12 -4 -12 1 0 4 -29 8 -65 8 -36 0 -65 -4 -65 -8 0 -5
-5 -5 -11 -2 -14 9 -99 12 -99 4 0 -4 -18 -3 -40 1 -27 5 -40 4 -40 -4 0 -7
-3 -7 -8 1 -5 8 -13 9 -22 3 -8 -5 -21 -5 -31 1 -12 6 -20 5 -24 -1 -4 -6 -11
-7 -18 -3 -15 9 -57 10 -57 1 0 -4 -11 -4 -23 1 -13 5 -30 6 -37 1 -7 -4 -23
-5 -34 0 -11 4 -33 4 -48 -1 -16 -4 -28 -4 -28 0 0 4 -16 7 -35 7 -19 -1 -35
-4 -35 -8 0 -4 -10 -4 -22 1 -13 4 -35 5 -50 0 -16 -4 -28 -5 -28 -1 0 4 -16
7 -35 8 -19 0 -35 -3 -35 -7 0 -5 -6 -6 -13 -3 -24 9 -98 10 -103 2 -3 -5 -10
-6 -15 -2 -15 9 -109 11 -109 2 0 -4 -6 -5 -13 -2 -24 9 -98 10 -103 2 -3 -5
-10 -6 -15 -2 -16 9 -109 11 -109 1 0 -4 -8 -3 -18 2 -10 5 -24 6 -32 1 -7 -4
-23 -4 -35 0 -14 5 -27 4 -34 -3 -8 -8 -11 -441 -11 -1626 1 -1566 1 -1617 19
-1638 11 -13 24 -23 30 -23 6 0 11 -4 11 -8 0 -5 42 -51 94 -104 52 -53 92
-99 88 -102 -3 -3 0 -6 7 -6 6 0 44 -34 84 -76 39 -42 105 -109 145 -150 39
-40 72 -77 72 -83 0 -6 7 -11 15 -11 8 0 15 -4 15 -8 0 -4 60 -69 134 -145 73
-75 131 -139 128 -142 -3 -3 3 -5 13 -5 10 0 16 -3 12 -6 -3 -3 28 -40 69 -81
40 -41 74 -76 74 -78 0 -1 52 -56 115 -121 63 -65 115 -122 115 -126 0 -4 7
-8 15 -8 8 0 15 -4 15 -8 0 -7 133 -154 170 -187 6 -5 23 -23 38 -39 15 -16
59 -62 98 -103 39 -40 69 -73 67 -73 -3 0 20 -25 51 -55 31 -31 56 -57 56 -59
0 -2 25 -29 55 -61 30 -31 55 -61 55 -66 0 -5 4 -8 9 -7 11 3 51 -41 51 -55 0
-6 3 -7 7 -4 3 4 16 -7 29 -24 22 -31 83 -72 67 -46 -5 9 -3 9 8 1 8 -6 35
-11 62 -11 26 0 50 -3 54 -6 3 -4 14 -2 24 4 14 7 19 6 19 -3 0 -9 3 -9 10 2
7 11 10 11 10 2 0 -9 5 -10 18 -3 11 6 24 6 35 0 9 -6 17 -6 17 -2 0 7 94 9
110 3 3 -1 10 -1 15 0 23 5 313 5 310 -1 -5 -7 55 -3 62 5 3 3 15 1 26 -5 13
-7 17 -8 13 -1 -5 9 32 10 54 2 3 -2 10 -1 15 0 38 8 45 8 45 -3 0 -8 3 -8 8
-2 10 15 55 18 46 3 -5 -8 -3 -8 7 -2 19 12 89 13 82 1 -4 -6 -1 -7 7 -2 6 4
55 7 109 6 53 -1 103 -2 111 -2 16 1 158 1 175 0 6 0 27 2 47 4 21 3 36 1 33
-3 -3 -5 9 -5 27 1 41 11 41 11 32 -3 -5 -7 -3 -8 7 -3 20 13 389 12 389 0 0
-7 3 -7 8 0 8 11 37 13 48 3 3 -4 14 -4 23 0 20 9 52 8 69 -1 6 -5 12 -4 12 2
0 6 5 11 11 11 5 0 8 -3 6 -8 -3 -4 8 -7 23 -7 15 0 26 3 24 6 -5 9 64 4 72
-4 4 -3 14 -3 23 1 20 9 52 8 69 -1 6 -5 12 -4 12 2 0 6 5 11 11 11 5 0 8 -3
6 -7 -3 -5 8 -8 23 -8 15 0 26 3 24 6 -3 6 61 4 76 -1 3 -2 10 -1 15 0 31 6
74 7 71 1 -6 -9 48 -6 63 4 6 3 11 0 11 -7 0 -9 3 -9 10 2 7 11 10 11 10 2 0
-9 5 -10 18 -3 11 6 24 6 35 0 11 -7 17 -6 17 1 0 5 7 10 15 10 8 0 15 -6 15
-12 0 -9 4 -8 10 2 7 11 10 11 10 2 0 -9 5 -10 18 -3 11 6 24 6 35 0 9 -6 17
-6 17 -1 0 5 7 9 15 9 8 0 15 -5 15 -11 0 -6 5 -4 10 4 7 11 10 11 10 2 0 -9
5 -10 18 -3 11 6 24 6 35 0 9 -6 17 -6 17 -1 0 5 7 9 15 9 8 0 15 -5 15 -11 0
-6 5 -4 10 4 7 11 10 11 10 2 0 -7 5 -10 11 -6 15 9 143 9 157 0 7 -4 12 -4
12 1 0 9 103 8 119 -1 6 -4 11 -3 11 2 0 5 20 6 45 2 25 -4 45 -4 45 -1 0 3
14 6 30 6 17 0 30 -4 30 -10 0 -5 5 -3 10 5 5 8 10 10 10 5 0 -6 9 -11 20 -11
11 0 20 5 20 11 0 5 5 3 10 -5 5 -8 10 -10 10 -5 0 6 9 11 20 11 11 0 20 -5
20 -11 0 -5 5 -3 10 5 5 8 10 10 10 5 0 -6 9 -11 20 -11 11 0 20 4 20 9 0 5 7
4 15 -3 12 -10 15 -10 15 1 0 9 3 10 8 4 10 -14 64 -17 56 -3 -4 5 4 5 17 -2
18 -10 24 -10 27 -1 3 9 7 9 18 0 11 -9 14 -9 14 0 0 7 5 9 11 6 16 -11 69
-12 69 -3 0 5 10 4 21 -3 17 -9 23 -8 30 2 7 11 9 11 9 -1 0 -9 3 -11 8 -5 8
12 93 14 86 3 -3 -5 0 -8 5 -8 6 0 11 3 11 8 0 11 94 10 102 -2 5 -7 8 -3 8 9
0 12 3 16 8 9 5 -8 16 -7 37 2 17 7 26 13 21 14 -6 0 0 9 12 20 12 12 22 25
22 31 0 6 5 7 10 4 6 -3 10 1 10 9 0 9 7 16 15 16 8 0 15 4 15 10 0 5 29 40
65 76 36 37 65 70 65 75 0 4 9 10 20 14 11 3 19 9 17 13 -1 4 22 31 51 59 28
29 52 57 52 63 0 6 5 8 10 5 6 -3 10 -2 10 3 0 5 38 48 84 95 46 47 81 88 78
92 -4 4 -2 5 3 3 6 -1 49 36 96 85 47 48 84 87 83 87 -3 0 117 127 261 276 67
68 120 124 118 124 -1 0 8 10 20 23 12 13 25 22 30 20 4 -2 7 3 7 12 0 9 5 13
10 10 6 -3 10 -1 10 5 0 6 16 26 35 44 19 19 35 39 35 45 0 6 4 11 9 11 9 0
27 17 111 107 16 18 30 29 30 25 0 -4 6 4 13 18 8 14 19 24 25 22 7 -1 11 1
10 6 -2 4 25 35 59 70 34 34 59 62 56 62 -3 0 14 16 37 35 23 19 40 35 37 35
-3 0 30 37 74 81 43 45 79 86 79 92 0 6 2 8 5 5 5 -5 43 32 148 144 42 45 45
50 45 107 1 34 1 62 2 64 6 15 3 227 -3 227 -5 0 -5 5 -1 12 9 15 10 58 1 81
-3 9 -3 18 1 21 9 6 8 48 -1 63 -4 7 -3 14 1 17 10 6 8 48 -2 65 -4 5 -2 12 2
15 10 6 8 48 -2 65 -4 5 -2 12 2 15 10 6 8 48 -2 65 -4 5 -2 12 2 15 10 6 8
48 -2 65 -4 5 -2 12 2 15 10 6 8 48 -2 65 -4 5 -2 12 2 15 10 6 8 48 -2 65 -4
5 -2 12 2 15 10 6 8 48 -2 65 -4 5 -2 12 2 15 10 6 8 48 -2 65 -4 5 -2 12 2
15 10 6 8 48 -2 65 -4 5 -2 12 2 15 10 6 8 48 -2 65 -4 5 -2 12 2 15 10 6 8
48 -2 65 -4 5 -2 12 2 15 10 6 8 48 -2 65 -4 5 -2 12 2 15 10 6 8 48 -2 65 -4
5 -2 12 2 15 10 6 8 48 -2 65 -4 5 -2 12 2 15 10 6 8 48 -2 65 -4 5 -2 12 2
15 10 6 8 48 -2 65 -4 5 -2 12 2 15 10 6 8 48 -2 65 -4 5 -2 12 2 15 10 6 8
48 -2 65 -4 5 -2 12 2 15 10 6 8 48 -2 65 -4 5 -2 12 2 15 10 6 8 48 -2 65 -4
5 -2 12 2 15 10 6 8 48 -2 65 -4 5 -2 12 2 15 10 6 8 48 -2 65 -4 5 -2 12 2
15 10 6 8 48 -2 65 -4 5 -2 12 2 15 10 6 8 48 -2 65 -4 5 -2 12 2 15 10 6 8
48 -2 65 -4 5 -2 12 2 15 10 6 8 48 -2 65 -4 5 -2 12 2 15 10 6 8 48 -2 65 -4
5 -2 12 2 15 10 6 8 48 -2 65 -4 5 -2 12 2 15 10 6 8 48 -2 65 -4 5 -2 12 2
15 10 6 8 48 -2 65 -4 5 -2 12 2 15 10 6 8 48 -2 65 -4 5 -2 12 2 15 10 6 8
48 -2 65 -4 5 -2 12 2 15 10 6 8 48 -2 65 -4 5 -2 12 2 15 10 6 8 48 -2 65 -4
5 -2 12 2 15 10 6 8 48 -2 65 -4 5 -2 12 2 15 10 6 8 48 -2 65 -4 5 -2 12 2
15 10 6 8 48 -2 65 -4 5 -2 12 2 15 10 6 8 48 -2 65 -4 5 -2 12 2 15 10 6 8
48 -2 65 -4 5 -2 12 2 15 10 6 8 48 -2 65 -4 5 -2 12 2 15 8 5 9 29 2 61 -1 6
-1 15 0 20 6 27 4 51 -5 57 -6 5 -6 8 1 8 11 0 11 60 0 78 -3 6 -2 13 2 16 10
6 8 48 -2 65 -4 5 -2 12 2 15 10 6 8 48 -2 65 -4 5 -2 12 3 15 6 4 6 18 1 36
-5 17 -5 30 -1 30 11 0 7 144 -4 152 -6 5 -6 8 1 8 11 0 11 60 0 78 -3 6 -2
13 3 16 6 4 6 18 1 36 -5 17 -5 30 -1 30 9 0 7 63 -3 78 -3 6 -2 13 2 16 10 6
8 48 -2 65 -4 5 -2 12 2 15 10 6 8 48 -2 65 -4 5 -2 12 2 15 10 6 8 48 -2 65
-4 5 -2 12 3 15 6 4 6 18 1 36 -5 17 -5 30 0 30 9 0 6 33 -5 50 -3 6 0 10 7
10 9 0 9 3 -2 10 -9 6 -10 10 -3 10 11 0 10 34 -2 68 -2 6 -1 12 4 12 9 0 7
63 -3 78 -3 6 -2 13 3 16 6 4 6 18 1 36 -5 17 -5 30 0 30 8 0 5 39 -5 68 -2 6
0 12 5 12 8 0 5 38 -5 68 -2 6 0 12 5 12 9 0 6 32 -5 50 -3 6 0 10 7 10 9 0 9
3 -2 10 -9 6 -10 10 -3 10 12 0 10 30 -2 50 -3 6 0 10 7 10 9 0 9 3 -2 10 -9
6 -10 10 -3 10 12 0 10 30 -2 50 -3 6 0 10 7 10 9 0 9 3 -2 10 -8 5 -10 10 -5
10 14 0 13 70 0 70 -7 0 -7 3 0 8 13 9 13 72 0 72 -6 0 -6 3 0 8 14 9 13 65 0
74 -6 5 -6 8 2 8 11 0 10 34 -2 68 -2 6 0 12 5 12 8 0 5 38 -5 68 -2 6 0 12 5
12 8 0 5 38 -5 68 -2 6 0 12 5 12 8 0 5 38 -5 68 -2 6 0 12 5 12 9 0 6 32 -5
50 -3 6 0 10 7 10 9 0 9 3 -2 10 -8 5 -10 10 -5 10 14 0 13 70 0 70 -7 0 -7 3
0 8 13 9 13 72 0 72 -6 0 -6 3 0 8 14 9 13 65 0 74 -6 5 -6 8 1 8 11 0 11 60
0 78 -3 6 -2 13 2 16 10 6 8 48 -2 65 -4 5 -2 12 3 15 6 4 6 18 1 36 -5 17 -5
30 -1 30 9 0 7 63 -3 78 -3 6 -2 13 2 16 10 6 8 48 -2 65 -4 5 -2 12 2 15 10
6 8 48 -2 65 -4 5 -2 12 2 15 10 6 8 48 -2 65 -4 5 -3 12 2 15 9 6 8 59 -3 75
-3 6 -3 11 2 11 4 0 8 87 8 192 l0 193 40 1 c23 0 46 4 53 8 6 4 19 3 27 -2 9
-4 38 -5 66 -2 27 4 52 3 55 -1 2 -5 11 -6 18 -3 19 7 146 10 146 4 0 -3 9 -6
20 -6 11 0 20 3 20 7 0 3 12 4 28 2 15 -2 41 -3 57 -3 52 2 140 7 145 8 3 1 5
683 5 1515 -1 1142 -4 1517 -13 1532 -6 11 -12 15 -12 9 0 -13 -32 -13 -41 0
-4 4 -15 3 -26 -3 -11 -5 -24 -7 -27 -3 -8 8 -5044 10 -5055 2z m447 -367 c6
-2 12 3 12 10 0 8 4 7 10 -3 5 -8 10 -10 10 -5 0 10 86 12 96 2 4 -3 17 -2 30
3 15 6 24 6 24 0 0 -6 9 -6 23 -1 13 5 30 5 37 1 8 -5 19 -6 24 -3 15 10 56
10 56 0 0 -4 4 -5 10 -2 15 9 90 12 90 3 0 -4 10 -4 23 1 14 5 30 5 40 0 9 -6
17 -6 17 -1 0 8 109 7 117 -2 3 -3 16 -1 29 4 16 6 24 6 24 -1 0 -6 6 -7 12
-3 11 7 54 7 103 2 6 -1 20 2 33 6 14 5 22 3 22 -4 0 -8 6 -8 20 0 14 8 20 8
20 0 0 -6 4 -8 10 -5 15 9 90 12 90 3 0 -4 11 -3 25 2 17 6 25 6 25 -1 0 -6 5
-7 12 -3 17 11 78 12 84 2 3 -5 10 -6 15 -2 17 10 59 12 65 2 3 -4 10 -5 16
-2 17 11 78 12 78 1 0 -6 5 -5 13 1 7 6 18 7 26 2 8 -4 19 -6 25 -4 25 9 77
11 82 3 3 -5 12 -5 22 0 9 5 26 5 40 0 14 -5 21 -5 17 0 -3 6 4 9 15 8 11 -1
20 -6 20 -11 0 -6 5 -5 12 2 9 9 15 9 27 -1 8 -7 12 -7 8 -1 -7 13 52 12 73
-1 8 -5 11 -4 6 3 -4 7 1 10 14 9 11 -1 20 -6 20 -11 0 -6 5 -5 12 2 9 9 15 9
27 -1 11 -9 13 -9 8 0 -5 8 0 11 13 10 11 -1 20 -5 20 -10 0 -5 6 -4 13 2 9 7
24 8 45 1 18 -5 30 -5 27 0 -3 5 4 8 15 7 11 -1 20 -5 20 -10 0 -4 6 -5 13 0
18 11 81 10 89 -2 5 -6 8 -5 8 4 0 10 3 11 13 3 7 -6 18 -7 27 -2 7 4 24 4 37
-1 15 -5 22 -5 18 0 -3 6 4 9 15 8 11 -1 20 -5 20 -10 0 -4 6 -5 13 0 16 10
67 11 73 1 3 -5 10 -5 16 -2 18 11 78 11 78 0 0 -6 4 -6 12 2 7 7 17 8 29 2
10 -6 20 -6 23 -2 3 4 24 7 48 6 24 -2 54 -3 68 -4 14 -1 37 1 53 3 15 2 27 0
27 -5 0 -5 5 -6 10 -3 16 10 150 12 150 3 0 -5 9 -4 19 2 14 7 22 7 26 0 4 -6
11 -8 16 -4 15 9 79 11 79 2 0 -4 10 -4 23 1 14 5 30 5 40 0 9 -6 17 -6 17 -2
0 9 98 9 106 0 3 -2 21 -1 40 3 20 5 34 4 34 -1 0 -6 7 -6 18 -1 9 5 26 6 37
2 11 -4 28 -3 38 2 11 6 17 5 17 -2 0 -7 7 -7 22 1 12 7 23 8 25 3 3 -10 65
-10 81 0 7 4 12 3 12 -2 0 -10 36 -9 46 1 4 4 13 2 21 -4 10 -9 13 -8 13 2 0
9 3 10 8 4 8 -12 53 -15 46 -3 -3 4 0 8 5 8 6 0 11 -4 11 -10 0 -11 28 -9 48
3 6 5 12 4 12 -1 0 -11 50 -9 68 2 7 4 12 1 13 -6 0 -10 2 -10 6 1 4 9 7 10
13 2 5 -8 14 -9 33 -2 18 7 27 7 30 -2 3 -9 7 -9 19 1 12 10 17 10 20 1 3 -9
9 -9 27 1 19 10 22 10 15 -2 -6 -11 -5 -11 8 0 9 7 19 9 21 5 6 -10 95 -9 104
1 3 3 12 1 20 -5 10 -9 17 -8 28 1 10 9 15 9 15 1 0 -13 22 -10 32 4 5 6 8 5
8 -3 0 -10 5 -10 20 -2 11 6 20 7 20 3 0 -10 133 -9 149 1 6 4 11 2 11 -3 0
-13 22 -10 32 4 5 6 8 5 8 -2 0 -7 6 -10 13 -7 8 3 20 -2 27 -11 10 -12 10
-15 -1 -15 -11 0 -11 -2 1 -10 11 -7 11 -10 2 -10 -8 0 -10 -5 -6 -12 12 -19
11 -1188 -1 -1188 -7 0 -7 -3 0 -8 13 -9 15 -52 3 -52 -5 0 -6 -5 -2 -11 11
-19 10 -169 -1 -169 -7 0 -7 -3 0 -8 12 -8 14 -122 2 -122 -5 0 -5 -5 -1 -11
9 -16 11 -109 1 -109 -5 0 -5 -5 -2 -10 8 -13 9 -189 2 -197 -3 -2 -1 -18 3
-34 6 -20 5 -29 -3 -30 -7 0 -7 -3 2 -6 11 -5 11 -7 0 -15 -11 -7 -11 -11 -1
-15 6 -2 9 -10 6 -15 -10 -16 -10 -128 -1 -128 5 0 5 -6 0 -12 -4 -7 -8 -38
-8 -68 l0 -55 -85 0 c-47 0 -88 -4 -92 -10 -5 -7 -8 -7 -8 0 0 6 -85 10 -235
10 -150 0 -235 -4 -235 -10 0 -5 -5 -3 -10 5 -7 11 -10 11 -10 2 0 -7 -3 -11
-8 -8 -10 6 -9 -4096 2 -4113 6 -9 5 -12 -1 -8 -14 9 -12 -85 2 -95 7 -5 7 -8
0 -8 -7 0 -10 -599 -10 -1775 0 -1567 -2 -1777 -15 -1785 -8 -5 -11 -10 -7
-10 5 0 2 -6 -5 -14 -7 -7 -69 -74 -138 -147 -69 -73 -144 -153 -167 -177 -24
-24 -43 -48 -43 -53 0 -5 -6 -9 -12 -9 -7 0 -22 -13 -33 -29 -10 -16 -23 -27
-27 -25 -4 3 -8 0 -8 -6 0 -15 -25 -40 -40 -40 -6 0 -9 -4 -5 -10 3 -5 -6 -16
-19 -25 -14 -9 -28 -25 -31 -36 -4 -11 -10 -17 -15 -14 -5 3 -11 -4 -15 -15
-4 -11 -11 -18 -16 -15 -5 4 -9 2 -9 -4 0 -5 -15 -24 -32 -42 -18 -18 -32 -37
-30 -42 1 -4 -1 -7 -5 -4 -5 2 -29 -18 -55 -45 -25 -26 -43 -48 -40 -48 4 -1
-4 -7 -18 -15 -14 -8 -22 -14 -18 -15 12 0 -30 -40 -42 -40 -6 0 -9 -3 -8 -7
1 -5 -17 -28 -40 -53 -23 -24 -42 -48 -42 -53 0 -4 -4 -5 -10 -2 -5 3 -10 3
-10 -2 0 -4 -34 -44 -75 -87 -41 -43 -75 -83 -75 -88 0 -5 -4 -6 -10 -3 -5 3
-10 2 -10 -2 0 -5 -25 -35 -55 -67 -30 -31 -55 -62 -55 -67 0 -6 -4 -7 -10 -4
-5 3 -10 -1 -10 -9 0 -9 -4 -15 -9 -14 -5 2 -11 -1 -12 -6 -2 -5 -52 -58 -112
-118 -59 -60 -107 -113 -107 -119 0 -6 -4 -7 -10 -4 -5 3 -10 1 -10 -5 0 -15
-26 -41 -34 -33 -3 4 -6 1 -6 -6 0 -6 -20 -31 -45 -55 -24 -24 -41 -46 -38
-50 4 -3 -1 -6 -10 -6 -8 0 -18 -8 -21 -18 -4 -10 -24 -34 -46 -52 -22 -18
-37 -37 -34 -42 3 -5 0 -7 -8 -6 -7 2 -12 -3 -10 -10 1 -8 -1 -11 -6 -8 -5 3
-14 -3 -22 -14 -10 -14 -19 -16 -36 -10 -14 6 -26 5 -29 -1 -4 -5 -11 -6 -17
-3 -12 8 -98 11 -98 4 0 -7 -90 -3 -97 4 -3 3 -14 1 -24 -4 -12 -7 -20 -7 -24
0 -4 6 -10 8 -14 6 -7 -5 -69 -7 -161 -5 -19 0 -55 0 -80 0 -25 0 -215 0 -423
2 -207 1 -377 -2 -377 -6 0 -5 -5 -5 -12 -1 -16 10 -148 11 -148 1 0 -5 -5 -5
-12 -1 -14 9 -716 12 -730 3 -6 -4 -25 -3 -44 1 -19 4 -34 4 -34 -1 0 -4 -7
-6 -15 -3 -22 9 -145 10 -145 2 0 -4 -13 -3 -29 2 -16 4 -31 7 -33 5 -5 -6
-67 -7 -105 -2 -18 2 -33 0 -33 -4 0 -4 -12 -4 -27 -1 -16 4 -41 6 -58 5 -16
-2 -45 -3 -62 -3 -50 0 -62 0 -75 0 -7 0 -35 0 -63 0 -27 1 -54 1 -60 0 -5 -1
-30 -1 -55 -1 -25 1 -51 2 -57 1 -7 0 -21 0 -30 0 -92 -1 -123 -1 -151 -4 -18
-1 -35 1 -38 6 -3 5 -10 5 -16 2 -16 -10 -68 -11 -68 -1 0 5 -5 5 -12 1 -6 -4
-126 -8 -265 -9 -246 -2 -255 -1 -269 19 -7 11 -14 16 -14 11 0 -5 -16 9 -35
31 -19 21 -35 42 -35 47 0 4 -7 7 -15 7 -8 0 -15 4 -15 10 0 5 -24 34 -53 65
-30 30 -52 57 -49 60 3 3 -2 5 -11 5 -9 0 -17 4 -17 8 0 5 -40 50 -90 100 -49
50 -90 96 -90 102 0 5 -6 10 -14 10 -8 0 -18 9 -21 20 -3 11 -13 20 -21 20 -8
0 -14 3 -14 8 0 4 -39 48 -88 99 -48 50 -130 137 -182 193 -52 56 -141 149
-196 206 -56 57 -100 104 -99 104 2 0 -31 36 -73 79 -127 132 -222 232 -222
235 0 2 -36 40 -79 84 -44 44 -77 83 -74 85 2 3 -5 8 -16 12 -12 3 -21 12 -21
18 0 7 -18 27 -40 46 -22 19 -36 39 -33 44 3 6 1 7 -5 3 -6 -3 -18 7 -28 23
-10 17 -21 28 -26 25 -4 -3 -8 -1 -8 4 0 4 -21 31 -48 58 l-47 49 -1 1358 c-2
1251 -1 1359 15 1365 29 11 2741 6 2753 -6 7 -7 11 -86 12 -210 0 -110 4 -204
8 -208 4 -4 4 -12 0 -18 -10 -16 -11 -1236 0 -1236 4 0 7 -3 7 -7 -3 -20 2
-34 11 -28 6 3 10 0 10 -7 0 -7 27 -39 60 -71 33 -32 60 -60 60 -62 0 -4 121
-123 208 -204 17 -17 32 -36 32 -41 0 -6 4 -10 8 -10 5 0 23 -13 42 -30 24
-21 41 -28 62 -26 15 2 30 0 32 -3 3 -4 160 -7 349 -6 228 0 343 -3 339 -10
-3 -6 0 -6 9 1 8 6 72 10 162 9 81 0 147 3 147 8 0 4 5 5 10 2 6 -3 13 1 16 9
3 9 11 13 17 9 5 -3 7 -1 3 5 -3 6 2 17 11 24 10 7 31 28 46 46 15 19 27 31
27 27 0 -7 39 34 59 64 8 11 18 18 23 15 4 -3 8 2 8 11 0 9 3 14 8 12 4 -2 15
4 25 15 9 10 14 18 10 18 -4 0 7 10 24 23 16 12 31 25 32 30 0 4 2 6 4 5 5 -5
53 48 50 55 -2 4 -1 7 4 7 13 0 102 88 96 94 -3 3 0 8 8 11 12 4 14 196 13
1263 -1 910 2 1261 10 1271 8 11 8 13 -1 8 -8 -5 -11 14 -9 73 1 51 -2 80 -8
80 -6 0 -5 4 2 9 8 4 14 12 14 16 0 4 -6 12 -14 16 -7 5 -8 9 -3 9 11 0 12
191 1 209 -4 6 -3 11 1 11 5 0 8 12 7 28 -1 15 -3 27 -4 27 -6 0 -4 77 2 81 5
3 5 11 1 17 -9 14 -12 97 -3 97 3 0 5 33 4 74 0 50 3 73 10 69 7 -5 7 -2 0 8
-8 10 -11 485 -10 1694 1 1220 -2 1683 -10 1692 -9 10 -143 19 -179 13 -5 -2
-14 -1 -20 0 -36 8 -315 3 -316 -5 0 -5 -3 -4 -6 3 -4 10 -8 10 -19 1 -8 -6
-14 -7 -14 -2 0 11 -29 11 -47 0 -6 -4 -14 -1 -17 5 -4 10 -7 10 -12 1 -3 -8
-15 -9 -34 -3 -19 5 -32 5 -36 -2 -4 -6 -10 -5 -16 3 -6 10 -11 10 -14 3 -3
-7 -18 -9 -45 -4 -21 4 -42 4 -45 -1 -2 -4 -11 -6 -20 -2 -8 3 -47 6 -87 7
l-72 1 0 242 c0 134 -4 243 -8 243 -5 0 -5 5 -1 12 11 17 11 58 1 58 -4 0 -3
9 3 20 8 14 8 20 0 20 -8 0 -8 6 0 20 8 14 8 20 0 20 -8 0 -8 6 0 20 8 14 8
20 0 20 -8 0 -8 6 0 20 8 14 8 20 0 20 -8 0 -8 6 0 20 6 11 7 20 2 20 -10 0
-8 48 2 57 3 4 1 12 -5 20 -6 7 -7 13 -2 13 5 0 10 7 10 15 0 8 -4 15 -8 15
-5 0 -5 10 0 23 5 12 5 32 0 45 -5 12 -5 22 0 22 4 0 8 7 8 15 0 8 -4 15 -9
15 -5 0 -7 4 -3 9 10 17 13 71 3 71 -5 0 -4 10 3 21 9 17 8 20 -2 14 -8 -5
-10 -4 -5 4 12 18 15 80 5 87 -5 3 -6 10 -2 17 11 19 10 357 -2 357 -6 0 -7 3
0 8 12 8 15 172 3 172 -4 0 -3 11 2 24 5 15 5 27 -3 35 -8 8 -8 11 1 11 8 0 9
7 2 25 -5 13 -5 27 -1 29 5 3 5 23 1 45 -4 25 -3 44 3 50 8 8 7 11 -2 11 -7 0
-9 5 -6 10 10 16 11 160 1 160 -5 0 -3 7 4 15 10 12 10 18 1 29 -7 8 -8 17 -3
20 5 3 8 20 7 38 -3 48 11 71 40 64 13 -3 27 -1 31 5 3 6 9 7 13 3 3 -5 12
-10 19 -11z"/>
<path d="M10006 11972 c-2 -4 -53 -7 -113 -6 -65 0 -114 -4 -122 -10 -11 -8
-13 -8 -8 1 6 9 -3 11 -30 9 -21 -2 -42 -5 -48 -6 -5 -1 -14 -1 -20 0 -33 8
-505 4 -505 -5 0 -6 -3 -6 -8 0 -10 15 -54 17 -46 3 5 -7 2 -8 -7 -2 -19 11
-79 13 -79 2 0 -5 -5 -6 -12 -2 -18 11 -118 12 -125 1 -3 -5 -9 -3 -13 4 -7
10 -11 10 -24 0 -9 -8 -16 -9 -16 -4 0 5 -7 10 -15 10 -8 0 -15 -5 -15 -11 0
-7 -3 -8 -8 -1 -9 13 -132 14 -132 1 0 -4 -8 -2 -17 5 -14 12 -15 12 -9 1 7
-11 4 -12 -10 -5 -22 11 -84 11 -101 0 -7 -5 -13 -4 -13 1 0 10 -50 9 -68 -2
-7 -4 -12 -3 -12 2 0 10 -50 9 -68 -2 -7 -4 -12 -3 -12 2 0 10 -50 9 -68 -2
-7 -4 -12 -3 -12 2 0 10 -50 9 -68 -2 -7 -4 -12 -3 -12 2 0 5 -7 9 -15 9 -8 0
-15 -5 -15 -11 0 -7 -3 -8 -8 -1 -8 13 -132 14 -132 2 0 -4 -6 -5 -12 -1 -18
11 -48 12 -54 2 -3 -5 -11 -5 -17 -1 -15 10 -38 10 -54 0 -7 -5 -13 -4 -13 1
0 10 -50 9 -68 -2 -7 -4 -12 -3 -12 2 0 10 -50 9 -68 -2 -7 -4 -12 -3 -12 1 0
5 -13 9 -30 8 -16 0 -30 -4 -30 -8 0 -5 -6 -5 -12 0 -18 11 -59 12 -80 1 -9
-4 -19 -4 -22 1 -6 10 -72 8 -83 -2 -3 -4 -12 -2 -20 4 -10 9 -13 8 -13 0 0
-7 -5 -9 -12 -5 -17 10 -168 12 -174 2 -3 -5 -10 -5 -16 -2 -18 11 -78 11 -78
0 0 -7 -3 -7 -8 -1 -9 13 -42 16 -42 3 0 -5 -6 -6 -12 -1 -18 10 -78 11 -84 1
-3 -5 -10 -6 -15 -2 -17 10 -59 12 -65 2 -3 -5 -11 -5 -17 0 -10 7 -52 9 -59
2 -7 -5 -48 -6 -48 0 0 8 -143 5 -157 -3 -7 -4 -14 -4 -17 1 -6 10 -113 8
-123 -3 -5 -4 -1 -5 7 -1 13 7 13 6 0 -6 -12 -11 -14 -34 -10 -133 3 -66 3
-353 0 -638 -3 -340 -2 -518 5 -521 7 -3 7 -5 0 -5 -17 -2 -5 -100 13 -110 10
-4 232 -9 495 -9 263 -1 481 -3 485 -6 4 -2 7 -182 7 -400 0 -219 4 -396 9
-396 5 0 3 -6 -3 -14 -8 -9 -8 -21 -2 -39 5 -14 7 -28 3 -31 -9 -10 -8 -256 2
-256 5 0 4 -6 -1 -12 -6 -8 -9 -1205 -9 -3122 l1 -3109 -302 -303 c-166 -167
-299 -304 -296 -304 3 0 -7 -10 -23 -22 -16 -13 -47 -42 -69 -65 l-41 -41
-693 0 -693 0 -91 89 c-49 49 -94 89 -99 89 -4 0 -8 7 -8 15 0 9 -10 20 -22
25 -13 5 -20 9 -17 9 9 1 -143 151 -153 151 -5 0 -7 4 -3 9 3 5 -4 12 -15 16
-11 3 -20 10 -20 15 0 13 -48 59 -54 52 -3 -3 -6 3 -6 13 0 10 -3 16 -6 13 -6
-7 -74 61 -74 75 0 6 -3 7 -7 4 -3 -4 -15 5 -25 20 -10 16 -18 24 -18 20 0 -5
-7 -2 -15 7 -8 8 -15 19 -15 25 0 6 -7 11 -16 11 -8 0 -12 5 -9 10 3 6 0 10
-8 10 -12 0 -14 114 -13 746 1 653 -1 747 -14 754 -8 4 -61 7 -117 6 -57 -1
-103 2 -103 7 0 6 -5 5 -12 0 -14 -11 -159 -10 -176 1 -6 3 -13 3 -15 -1 -3
-5 -356 -8 -785 -8 l-780 0 0 -30 c0 -16 -1 -32 -2 -35 -8 -15 -6 -1437 2
-1447 5 -6 5 -14 1 -16 -11 -7 -10 -168 0 -185 5 -6 4 -12 -1 -12 -10 0 -8
-72 2 -89 4 -5 2 -12 -3 -16 -9 -5 -9 -12 -1 -50 1 -5 1 -12 0 -15 -7 -17 -3
-90 5 -90 6 0 3 -5 -5 -10 -13 -9 -13 -10 0 -10 9 0 11 -3 5 -8 -9 -6 -11 -27
-5 -42 6 -17 5 -52 -2 -56 -5 -3 -5 -11 0 -17 5 -7 8 -38 8 -69 -1 -31 0 -55
2 -53 2 2 58 -50 125 -116 66 -65 124 -119 129 -119 4 0 8 -7 8 -16 0 -8 4
-13 9 -9 5 3 12 -4 16 -15 3 -11 13 -20 21 -20 8 0 14 -4 14 -8 0 -8 119 -132
126 -132 8 0 74 -74 74 -83 0 -6 3 -8 6 -5 7 8 54 -40 54 -54 0 -6 3 -9 6 -6
6 7 134 -121 134 -134 0 -4 3 -7 8 -6 4 2 155 -145 337 -325 181 -180 333
-327 337 -327 4 0 8 -4 8 -10 0 -5 10 -19 22 -30 13 -12 24 -25 24 -31 1 -5 3
-12 4 -16 1 -5 1 -20 0 -34 0 -15 5 -28 12 -31 7 -2 852 -4 1878 -4 l1864 1 7
35 c4 19 12 36 18 38 6 2 11 8 11 13 0 12 503 515 512 511 5 -1 7 2 6 6 -4 10
64 78 75 74 4 -1 6 2 5 6 -4 11 143 158 154 154 4 -1 7 1 6 6 -4 10 103 118
114 114 4 -1 7 2 6 7 -2 5 46 58 107 117 60 60 108 112 107 117 -1 4 2 7 7 7
5 0 63 54 129 120 65 66 124 120 130 120 7 0 12 5 12 10 0 6 15 26 34 45 19
19 37 43 41 55 3 11 13 20 21 20 15 0 15 -145 14 5548 l0 2592 167 1 c176 1
506 6 535 8 13 1 16 9 13 36 -2 19 1 35 6 35 6 0 6 6 0 17 -5 10 -5 26 -1 39
5 12 6 24 3 28 -10 9 -10 76 -1 76 5 0 5 7 -1 17 -5 10 -5 26 -1 39 5 12 6 24
3 28 -10 9 -10 76 -1 76 5 0 5 7 0 17 -6 9 -6 29 -2 45 5 15 6 28 2 28 -8 0
-8 58 1 66 3 3 3 12 0 20 -8 22 -9 117 -1 142 4 12 4 22 0 22 -9 0 -8 132 2
148 4 6 4 12 -1 12 -10 0 -10 131 0 147 4 6 2 13 -4 15 -7 2 -7 12 0 31 6 15
7 27 3 27 -4 0 -7 18 -7 39 -1 22 3 37 7 35 4 -3 4 5 -1 18 -5 13 -5 33 0 46
5 12 5 22 1 22 -10 0 -7 83 3 100 6 9 4 11 -5 5 -10 -6 -12 -3 -8 13 7 24 -16
34 -80 34 -23 0 -40 4 -36 9 3 5 3 9 0 9 -3 0 -7 -4 -10 -8z m-1597 -116 c9
-6 12 -5 8 0 -3 6 319 9 821 9 776 -1 827 -2 826 -18 -1 -9 2 -17 8 -17 5 0 6
-6 1 -12 -8 -14 -6 -125 2 -138 3 -5 -1 -11 -7 -14 -11 -5 -11 -7 0 -12 6 -3
9 -11 6 -16 -10 -16 -10 -128 -1 -128 5 0 5 -5 2 -11 -10 -15 -11 -309 -2
-309 5 0 5 -6 0 -12 -8 -14 -6 -125 2 -138 3 -5 -1 -11 -7 -14 -11 -5 -11 -7
0 -12 6 -3 9 -11 6 -16 -10 -17 -10 -128 0 -128 5 0 3 -7 -4 -15 -10 -12 -10
-15 1 -15 11 0 11 -3 -1 -11 -12 -8 -12 -12 -2 -16 10 -4 10 -8 1 -19 -9 -11
-8 -14 2 -14 11 0 11 -3 -1 -11 -11 -8 -12 -12 -2 -16 6 -2 9 -10 5 -16 -4 -7
-6 -36 -5 -66 2 -52 1 -53 -23 -49 -13 3 -22 1 -19 -3 7 -11 1 -11 -30 1 -15
5 -28 6 -31 0 -3 -5 -15 -6 -28 -1 -14 5 -30 5 -40 0 -12 -7 -17 -6 -17 2 0 9
-3 9 -14 0 -10 -8 -16 -9 -21 -1 -4 7 -12 7 -26 0 -14 -8 -19 -7 -19 1 0 9 -3
9 -14 0 -10 -8 -16 -9 -21 -1 -4 7 -12 7 -26 0 -13 -8 -19 -7 -19 0 0 7 -6 8
-19 0 -14 -7 -22 -7 -26 0 -5 8 -11 7 -21 -1 -11 -9 -14 -9 -14 0 0 7 -5 9
-11 6 -14 -10 -59 -14 -59 -6 0 8 -48 7 -56 -2 -4 -4 -12 -3 -18 0 -17 11 -35
12 -42 2 -3 -5 -10 -9 -15 -9 -6 0 -7 5 -3 11 4 8 1 8 -12 2 -11 -5 -29 -8
-42 -7 -13 1 -26 -4 -28 -10 -2 -6 -5 -1806 -7 -4001 -2 -2194 -4 -4031 -5
-4082 -1 -90 -14 -132 -47 -155 -5 -4 -6 -8 -1 -8 14 0 -47 -50 -62 -50 -6 0
-11 -3 -10 -7 1 -5 -36 -47 -84 -95 -48 -47 -83 -89 -80 -93 4 -4 3 -5 -3 -3
-9 2 -501 -482 -497 -489 1 -2 -1 -3 -4 -2 -3 0 -18 -16 -33 -35 -16 -20 -30
-34 -32 -33 -2 2 -14 -7 -26 -20 -12 -13 -21 -23 -18 -23 2 0 -44 -47 -103
-105 -58 -58 -109 -105 -114 -105 -4 0 -7 -3 -6 -7 3 -12 -69 -83 -83 -83 -7
0 -10 -2 -7 -5 7 -7 -99 -115 -113 -115 -7 0 -10 -3 -6 -6 7 -8 -17 -34 -32
-34 -6 0 -11 -7 -11 -16 0 -8 -4 -12 -10 -9 -5 3 -10 1 -10 -6 0 -6 -11 -22
-24 -34 -13 -12 -31 -34 -41 -48 -9 -15 -23 -27 -29 -27 -7 0 -17 -5 -24 -12
-14 -14 -784 -19 -775 -5 3 5 -4 4 -16 -2 -16 -9 -21 -9 -22 1 0 7 -2 9 -5 3
-3 -8 -224 -12 -244 -5 -3 2 -9 1 -15 0 -34 -8 -215 -3 -215 5 0 7 -3 7 -8 0
-9 -12 -102 -13 -121 -1 -9 6 -12 5 -8 0 5 -8 -93 -11 -113 -3 -3 1 -9 0 -15
-1 -35 -8 -295 -3 -295 5 0 7 -3 7 -8 0 -4 -5 -29 -10 -57 -10 -27 0 -53 5
-57 10 -5 7 -8 7 -8 0 0 -6 -120 -10 -339 -10 -200 0 -337 4 -334 9 4 5 1 6
-6 2 -19 -12 -111 -13 -112 -1 0 6 -2 6 -5 0 -3 -6 -117 -9 -321 -8 -442 4
-424 3 -417 15 4 5 -4 5 -16 -2 -18 -10 -24 -9 -31 1 -5 8 -9 10 -9 5 0 -5 -7
-3 -15 4 -8 7 -15 10 -15 6 0 -3 -24 21 -52 53 -29 33 -58 60 -65 60 -6 1 -15
10 -18 21 -3 11 -13 20 -21 20 -8 0 -12 5 -9 10 3 6 -1 10 -9 10 -9 0 -15 4
-14 8 2 5 -29 38 -69 74 -39 37 -69 69 -66 71 2 3 -4 8 -15 11 -10 4 -25 18
-32 31 -7 14 -18 25 -24 25 -6 0 -20 14 -31 30 -11 16 -24 30 -28 30 -13 0
-37 27 -30 34 4 3 2 6 -3 6 -13 0 -114 97 -114 110 0 6 -4 10 -10 10 -5 0
-113 103 -240 230 -128 127 -236 230 -241 230 -6 0 -8 4 -4 10 3 5 -7 16 -22
24 -15 8 -25 15 -21 16 12 0 -121 130 -134 130 -6 0 -9 3 -5 6 6 7 -60 74 -74
74 -5 0 -9 4 -9 10 0 15 -33 50 -47 50 -6 0 -14 9 -18 19 -4 12 -12 18 -21 14
-15 -6 -16 -5 -17 85 0 34 -3 62 -7 62 -8 0 -6 83 3 97 4 6 4 14 -1 17 -7 4
-9 81 -2 81 1 0 3 10 4 22 2 13 0 23 -4 23 -3 0 -6 22 -6 50 1 27 5 50 9 50 5
0 5 6 0 12 -11 18 -11 68 0 68 6 0 6 5 0 12 -8 11 -10 72 -3 81 6 7 6 47 0 47
-9 0 -7 52 3 68 5 6 4 12 -1 12 -11 0 -10 50 1 68 5 6 4 12 -1 12 -7 0 -9 94
-2 125 1 6 1 12 0 15 -6 17 -5 50 2 50 5 0 6 6 2 12 -10 16 -10 50 0 66 4 6 3
12 -2 12 -12 0 -10 53 3 62 7 5 6 8 -1 8 -9 0 -11 59 -4 95 1 6 1 12 0 15 -6
17 -5 50 2 50 5 0 6 6 1 12 -11 18 -10 52 2 60 6 5 6 8 -1 8 -11 0 -11 40 0
59 4 5 3 12 -2 15 -5 3 -7 27 -5 53 5 60 5 62 0 96 -2 15 0 30 4 33 5 3 4 14
-2 26 -9 16 -8 19 2 13 7 -5 10 -4 5 3 -11 18 -14 112 -3 105 6 -4 7 -1 2 7
-12 19 -12 100 0 100 7 0 7 3 0 8 -13 9 -16 42 -3 42 5 0 6 6 2 12 -10 16 -10
50 0 66 4 6 3 12 -3 12 -11 0 -9 19 3 39 6 10 5 12 -2 7 -8 -5 -10 -2 -6 8 6
17 14 19 54 17 40 -2 63 -1 90 2 14 2 35 0 48 -5 12 -4 22 -4 22 0 0 12 94 9
102 -3 5 -6 8 -5 8 4 0 11 3 11 15 1 8 -7 15 -9 15 -4 0 5 36 9 80 9 44 0 80
-4 80 -8 0 -5 5 -5 11 -2 16 11 69 12 69 2 0 -4 5 -5 11 -2 16 11 69 12 69 2
0 -4 5 -5 11 -2 16 11 69 12 69 2 0 -4 5 -5 11 -2 16 11 69 12 69 2 0 -4 5 -5
11 -2 16 11 69 12 69 2 0 -4 5 -5 11 -2 16 11 69 12 69 2 0 -4 5 -5 11 -2 18
12 69 12 69 1 0 -7 3 -8 8 -1 10 14 32 17 32 4 0 -5 5 -7 12 -3 15 10 86 11
101 2 6 -4 18 -1 26 5 12 10 13 9 6 -2 -5 -10 -4 -12 3 -7 18 11 92 14 92 4 0
-5 6 -6 12 -2 17 11 79 11 102 1 12 -6 16 -5 12 1 -4 6 2 10 14 9 11 -1 20 -5
20 -10 0 -5 7 -4 15 3 12 10 15 10 16 -1 0 -9 2 -10 5 -2 5 11 76 9 95 -2 5
-4 9 -2 9 2 0 12 123 10 132 -2 5 -6 8 -6 8 2 0 7 11 10 28 9 l27 -3 2 -149
c2 -82 5 -383 7 -669 4 -533 6 -598 18 -611 4 -4 4 -12 -1 -18 -6 -8 9 -31 46
-69 30 -31 56 -57 57 -57 11 0 506 -501 506 -511 0 -11 3 -11 10 1 5 8 10 10
10 4 0 -7 18 -30 40 -53 39 -40 41 -41 102 -38 35 1 66 7 71 12 5 7 10 7 15 0
9 -13 42 -16 42 -3 0 5 6 6 12 2 18 -11 48 -12 48 -2 0 5 10 2 23 -6 18 -12
100 -14 512 -11 270 2 533 5 585 6 l95 3 120 120 c66 67 123 120 127 118 5 -1
8 3 8 8 0 6 18 28 39 49 22 22 37 42 33 47 -4 4 -2 5 3 1 13 -7 97 78 87 88
-4 4 -2 5 4 3 5 -2 35 23 66 54 30 32 59 54 62 50 4 -4 6 -2 4 4 -4 14 63 80
77 76 6 -2 7 0 3 3 -4 4 24 39 62 77 l70 69 1 62 c1 34 2 71 3 82 0 11 -2 28
-6 37 -5 9 -5 19 0 22 4 2 5 34 2 71 -3 36 -4 68 -2 70 3 3 4 923 1 942 -1 5
0 11 1 16 5 18 3 78 -3 83 -4 4 -4 11 0 17 9 15 9 87 0 87 -5 0 -5 5 -1 11 8
14 9 118 1 126 -4 3 -4 10 -1 15 5 8 9 202 4 223 -1 6 -2 12 -1 15 7 17 5 90
-2 90 -5 0 -5 5 -1 11 9 15 11 108 2 122 -4 6 -4 15 -1 19 7 13 7 214 -1 226
-3 6 -2 13 2 16 5 3 6 26 2 51 -4 24 -5 47 -2 50 7 6 6 115 -1 122 -4 3 -4 10
-1 15 9 15 10 128 1 128 -5 0 -5 5 -1 12 9 15 10 71 1 86 -4 6 -3 13 1 16 5 3
6 26 2 51 -4 24 -5 47 -2 50 7 6 6 115 -1 122 -4 3 -4 10 -1 15 9 15 10 128 1
128 -5 0 -5 5 -1 12 6 9 8 145 2 187 0 3 0 11 1 16 7 37 4 265 -2 265 -5 0 -5
5 -1 12 9 15 10 71 1 86 -4 6 -3 13 1 16 5 3 6 26 2 51 -4 24 -5 47 -2 49 5 6
6 146 0 151 -2 3 -1 29 2 60 3 30 2 55 -3 55 -4 0 -5 5 -1 12 9 14 10 76 1 84
-4 4 -4 11 0 17 9 15 9 87 0 87 -5 0 -5 5 -2 11 9 13 10 198 1 206 -3 3 -3 10
1 16 9 15 9 87 0 87 -5 0 -5 5 -1 11 8 14 9 118 1 126 -4 3 -4 10 -1 15 9 15
10 128 1 128 -5 0 -5 5 -1 12 9 15 10 58 2 80 -4 9 -4 19 -1 22 9 9 9 86 0 86
-5 0 -5 5 -2 10 6 10 10 340 5 365 -1 6 -2 12 -1 15 3 8 4 214 1 225 -1 6 -2
12 -1 15 3 8 3 214 1 225 -1 6 -2 12 -1 15 7 17 5 90 -2 90 -5 0 -5 5 -1 11
10 16 11 269 1 269 -5 0 -5 5 -1 12 9 15 10 58 2 80 -4 9 -4 18 -1 21 5 6 8
202 3 222 -1 6 -2 12 -1 15 3 8 3 214 1 225 -1 6 -2 12 -1 15 7 17 5 90 -2 90
-5 0 -5 5 -1 11 9 15 11 108 2 122 -4 6 -4 15 -1 20 9 14 9 127 0 127 -5 0 -5
6 0 12 8 14 7 97 -1 106 -3 3 -25 6 -48 6 -24 1 -48 5 -55 9 -6 4 -14 3 -18
-2 -3 -6 -15 -7 -29 -1 -12 4 -29 5 -36 0 -7 -5 -24 -4 -37 1 -12 5 -23 5 -23
1 0 -8 -133 -7 -154 1 -7 3 -19 1 -26 -3 -7 -5 -24 -4 -37 1 -12 5 -23 5 -23
1 0 -9 -64 -7 -78 2 -5 3 -14 1 -22 -4 -7 -4 -24 -4 -37 1 -12 5 -23 5 -23 1
0 -4 -31 -7 -70 -7 -38 0 -70 3 -70 7 0 4 -13 3 -30 -2 -19 -5 -30 -5 -30 1 0
6 -6 7 -12 3 -16 -10 -48 -13 -48 -5 0 4 -15 6 -33 5 l-32 -2 -1 74 c0 49 3
71 10 67 7 -4 6 -1 0 8 -15 18 -15 69 0 69 7 0 8 3 1 8 -14 9 -14 75 -1 84 7
5 7 8 1 8 -7 0 -11 43 -11 114 0 77 4 113 11 108 7 -4 7 -1 -1 9 -13 17 -13
457 0 478 6 9 5 12 -1 8 -11 -7 -12 77 -1 89 4 3 4 14 -1 23 -8 17 -8 59 1 82
5 12 144 14 899 14 516 0 900 -4 908 -9z"/>
</g>
</svg>
